<mxfile host="65bd71144e">
    <diagram id="KjMDne3BpNcdKrSmOFuJ" name="Page-1">
        <mxGraphModel dx="549" dy="399" grid="1" gridSize="10" guides="1" tooltips="1" connect="1" arrows="1" fold="1" page="1" pageScale="1" pageWidth="2339" pageHeight="3300" math="0" shadow="0">
            <root>
                <mxCell id="0"/>
                <mxCell id="1" parent="0"/>
                <mxCell id="19" style="edgeStyle=none;html=1;exitX=1;exitY=0.5;exitDx=0;exitDy=0;exitPerimeter=0;fillColor=#1ba1e2;strokeColor=#006EAF;fontFamily=Times New Roman;" parent="1" source="3" edge="1">
                    <mxGeometry relative="1" as="geometry">
                        <mxPoint x="220" y="149.57142857142856" as="targetPoint"/>
                    </mxGeometry>
                </mxCell>
                <mxCell id="3" value="START" style="strokeWidth=2;html=1;shape=mxgraph.flowchart.terminator;whiteSpace=wrap;fillColor=#1ba1e2;fontColor=#ffffff;strokeColor=#006EAF;fontFamily=Times New Roman;" parent="1" vertex="1">
                    <mxGeometry x="70" y="120" width="100" height="60" as="geometry"/>
                </mxCell>
                <mxCell id="20" style="edgeStyle=none;html=1;exitX=1;exitY=0.5;exitDx=0;exitDy=0;fillColor=#1ba1e2;strokeColor=#006EAF;" parent="1" source="4" edge="1">
                    <mxGeometry relative="1" as="geometry">
                        <mxPoint x="540" y="149.57142857142856" as="targetPoint"/>
                    </mxGeometry>
                </mxCell>
                <mxCell id="4" value="Fungsi Login (Input Username dan Password)" style="rounded=1;whiteSpace=wrap;html=1;absoluteArcSize=1;arcSize=14;strokeWidth=2;fillColor=#60a917;fontColor=#ffffff;strokeColor=#2D7600;fontFamily=Times New Roman;" parent="1" vertex="1">
                    <mxGeometry x="230" y="100" width="240" height="100" as="geometry"/>
                </mxCell>
                <mxCell id="21" style="edgeStyle=none;html=1;exitX=0.5;exitY=1;exitDx=0;exitDy=0;fillColor=#1ba1e2;strokeColor=#006EAF;" parent="1" source="5" edge="1">
                    <mxGeometry relative="1" as="geometry">
                        <mxPoint x="669.5714285714284" y="250" as="targetPoint"/>
                    </mxGeometry>
                </mxCell>
                <mxCell id="5" value="Cek kredensial (Username &amp;amp; Password)" style="rounded=1;whiteSpace=wrap;html=1;absoluteArcSize=1;arcSize=14;strokeWidth=2;fillColor=#60a917;fontColor=#ffffff;strokeColor=#2D7600;fontFamily=Times New Roman;" parent="1" vertex="1">
                    <mxGeometry x="550" y="100" width="240" height="100" as="geometry"/>
                </mxCell>
                <mxCell id="22" style="edgeStyle=none;html=1;fillColor=#1ba1e2;strokeColor=#006EAF;" parent="1" source="6" edge="1">
                    <mxGeometry relative="1" as="geometry">
                        <mxPoint x="820" y="335" as="targetPoint"/>
                    </mxGeometry>
                </mxCell>
                <mxCell id="36" value="TIDAK" style="edgeLabel;html=1;align=center;verticalAlign=middle;resizable=0;points=[];" parent="22" vertex="1" connectable="0">
                    <mxGeometry x="-0.4419" y="4" relative="1" as="geometry">
                        <mxPoint as="offset"/>
                    </mxGeometry>
                </mxCell>
                <mxCell id="26" value="YA" style="edgeStyle=none;html=1;exitX=0.5;exitY=1;exitDx=0;exitDy=0;exitPerimeter=0;fillColor=#1ba1e2;strokeColor=#006EAF;" parent="1" source="6" edge="1">
                    <mxGeometry relative="1" as="geometry">
                        <mxPoint x="671" y="450" as="targetPoint"/>
                    </mxGeometry>
                </mxCell>
                <mxCell id="6" value="Login Berhasil ?" style="strokeWidth=2;html=1;shape=mxgraph.flowchart.decision;whiteSpace=wrap;fillColor=#6a00ff;fontColor=#ffffff;strokeColor=#3700CC;fontFamily=Times New Roman;" parent="1" vertex="1">
                    <mxGeometry x="600" y="260" width="142.5" height="150" as="geometry"/>
                </mxCell>
                <mxCell id="24" style="edgeStyle=none;html=1;exitX=0.5;exitY=1;exitDx=0;exitDy=0;fillColor=#1ba1e2;strokeColor=#006EAF;" parent="1" source="7" edge="1">
                    <mxGeometry relative="1" as="geometry">
                        <mxPoint x="679.8205128205129" y="620" as="targetPoint"/>
                    </mxGeometry>
                </mxCell>
                <mxCell id="7" value="Ambil tanggal sekarang" style="rounded=1;whiteSpace=wrap;html=1;absoluteArcSize=1;arcSize=14;strokeWidth=2;fillColor=#60a917;fontColor=#ffffff;strokeColor=#2D7600;fontFamily=Times New Roman;" parent="1" vertex="1">
                    <mxGeometry x="560" y="460" width="240" height="100" as="geometry"/>
                </mxCell>
                <mxCell id="34" style="edgeStyle=none;html=1;exitX=0.5;exitY=1;exitDx=0;exitDy=0;fillColor=#1ba1e2;strokeColor=#006EAF;" parent="1" source="8" edge="1">
                    <mxGeometry relative="1" as="geometry">
                        <mxPoint x="950.1052631578948" y="460" as="targetPoint"/>
                    </mxGeometry>
                </mxCell>
                <mxCell id="8" value="Tampilkan akses ditolak" style="rounded=1;whiteSpace=wrap;html=1;absoluteArcSize=1;arcSize=14;strokeWidth=2;fillColor=#60a917;fontColor=#ffffff;strokeColor=#2D7600;fontFamily=Times New Roman;" parent="1" vertex="1">
                    <mxGeometry x="830" y="275" width="240" height="100" as="geometry"/>
                </mxCell>
                <mxCell id="9" value="EXIT" style="strokeWidth=2;html=1;shape=mxgraph.flowchart.terminator;whiteSpace=wrap;fillColor=#1ba1e2;fontColor=#ffffff;strokeColor=#006EAF;fontFamily=Times New Roman;" parent="1" vertex="1">
                    <mxGeometry x="900" y="470" width="100" height="60" as="geometry"/>
                </mxCell>
                <mxCell id="25" style="edgeStyle=none;html=1;exitX=0.5;exitY=1;exitDx=0;exitDy=0;fillColor=#1ba1e2;strokeColor=#006EAF;" parent="1" source="10" edge="1">
                    <mxGeometry relative="1" as="geometry">
                        <mxPoint x="679.8205128205129" y="790" as="targetPoint"/>
                    </mxGeometry>
                </mxCell>
                <mxCell id="10" value="Cek file histori karyawan" style="rounded=1;whiteSpace=wrap;html=1;absoluteArcSize=1;arcSize=14;strokeWidth=2;fillColor=#60a917;fontColor=#ffffff;strokeColor=#2D7600;fontFamily=Times New Roman;" parent="1" vertex="1">
                    <mxGeometry x="560" y="630" width="240" height="100" as="geometry"/>
                </mxCell>
                <mxCell id="27" style="edgeStyle=none;html=1;exitX=0.5;exitY=1;exitDx=0;exitDy=0;fillColor=#1ba1e2;strokeColor=#006EAF;" parent="1" source="11" edge="1">
                    <mxGeometry relative="1" as="geometry">
                        <mxPoint x="680.1666666666667" y="950" as="targetPoint"/>
                    </mxGeometry>
                </mxCell>
                <mxCell id="11" value="Input data karyawan (Nama, NIK, Jabatan, Jam kerja, Pendidikan anak" style="rounded=1;whiteSpace=wrap;html=1;absoluteArcSize=1;arcSize=14;strokeWidth=2;fillColor=#60a917;fontColor=#ffffff;strokeColor=#2D7600;fontFamily=Times New Roman;" parent="1" vertex="1">
                    <mxGeometry x="560" y="800" width="240" height="100" as="geometry"/>
                </mxCell>
                <mxCell id="28" style="edgeStyle=none;html=1;exitX=0.5;exitY=1;exitDx=0;exitDy=0;fillColor=#1ba1e2;strokeColor=#006EAF;" parent="1" source="12" edge="1">
                    <mxGeometry relative="1" as="geometry">
                        <mxPoint x="680.1666666666667" y="1110" as="targetPoint"/>
                    </mxGeometry>
                </mxCell>
                <mxCell id="12" value="Hitung gaji (Gaji pokok, Tunjangan, Potongan, Total gaji)" style="rounded=1;whiteSpace=wrap;html=1;absoluteArcSize=1;arcSize=14;strokeWidth=2;fillColor=#60a917;fontColor=#ffffff;strokeColor=#2D7600;gradientColor=none;fontFamily=Times New Roman;" parent="1" vertex="1">
                    <mxGeometry x="560" y="960" width="240" height="100" as="geometry"/>
                </mxCell>
                <mxCell id="29" style="edgeStyle=none;html=1;exitX=0.5;exitY=1;exitDx=0;exitDy=0;fillColor=#1ba1e2;strokeColor=#006EAF;" parent="1" source="13" edge="1">
                    <mxGeometry relative="1" as="geometry">
                        <mxPoint x="680.1666666666667" y="1270" as="targetPoint"/>
                    </mxGeometry>
                </mxCell>
                <mxCell id="13" value="Tampilkan slip gaji (Pendapatan, Potongan, Total gaji)" style="rounded=1;whiteSpace=wrap;html=1;absoluteArcSize=1;arcSize=14;strokeWidth=2;fillColor=#60a917;fontColor=#ffffff;strokeColor=#2D7600;fontFamily=Times New Roman;" parent="1" vertex="1">
                    <mxGeometry x="560" y="1120" width="240" height="100" as="geometry"/>
                </mxCell>
                <mxCell id="30" style="edgeStyle=none;html=1;exitX=0.5;exitY=1;exitDx=0;exitDy=0;fillColor=#1ba1e2;strokeColor=#006EAF;" parent="1" source="14" edge="1">
                    <mxGeometry relative="1" as="geometry">
                        <mxPoint x="680.1666666666667" y="1429.9999999999998" as="targetPoint"/>
                    </mxGeometry>
                </mxCell>
                <mxCell id="14" value="Simpan data karyawan ke list" style="rounded=1;whiteSpace=wrap;html=1;absoluteArcSize=1;arcSize=14;strokeWidth=2;fillColor=#60a917;fontColor=#ffffff;strokeColor=#2D7600;fontFamily=Times New Roman;" parent="1" vertex="1">
                    <mxGeometry x="560" y="1280" width="240" height="100" as="geometry"/>
                </mxCell>
                <mxCell id="31" style="edgeStyle=none;html=1;exitX=0.5;exitY=1;exitDx=0;exitDy=0;exitPerimeter=0;fillColor=#1ba1e2;strokeColor=#006EAF;" parent="1" source="15" edge="1">
                    <mxGeometry relative="1" as="geometry">
                        <mxPoint x="680.1666666666667" y="1659.9999999999998" as="targetPoint"/>
                    </mxGeometry>
                </mxCell>
                <mxCell id="39" value="TIDAK" style="edgeLabel;html=1;align=center;verticalAlign=middle;resizable=0;points=[];" parent="31" vertex="1" connectable="0">
                    <mxGeometry x="-0.3143" y="-1" relative="1" as="geometry">
                        <mxPoint as="offset"/>
                    </mxGeometry>
                </mxCell>
                <mxCell id="35" style="edgeStyle=none;html=1;exitX=0;exitY=0.5;exitDx=0;exitDy=0;exitPerimeter=0;fillColor=#1ba1e2;strokeColor=#006EAF;" parent="1" source="15" edge="1">
                    <mxGeometry relative="1" as="geometry">
                        <mxPoint x="550" y="830" as="targetPoint"/>
                        <Array as="points">
                            <mxPoint x="360" y="1515"/>
                            <mxPoint x="360" y="830"/>
                        </Array>
                    </mxGeometry>
                </mxCell>
                <mxCell id="37" value="YA" style="edgeLabel;html=1;align=center;verticalAlign=middle;resizable=0;points=[];" parent="35" vertex="1" connectable="0">
                    <mxGeometry x="-0.8871" y="-3" relative="1" as="geometry">
                        <mxPoint x="1" as="offset"/>
                    </mxGeometry>
                </mxCell>
                <mxCell id="15" value="Apakah input data karyawan lain" style="strokeWidth=2;html=1;shape=mxgraph.flowchart.decision;whiteSpace=wrap;fillColor=#6a00ff;fontColor=#ffffff;strokeColor=#3700CC;fontFamily=Times New Roman;" parent="1" vertex="1">
                    <mxGeometry x="607.5" y="1440" width="145" height="150" as="geometry"/>
                </mxCell>
                <mxCell id="40" style="edgeStyle=none;html=1;exitX=0.5;exitY=1;exitDx=0;exitDy=0;fillColor=#1ba1e2;strokeColor=#006EAF;" parent="1" source="16" edge="1">
                    <mxGeometry relative="1" as="geometry">
                        <mxPoint x="680" y="1840" as="targetPoint"/>
                    </mxGeometry>
                </mxCell>
                <mxCell id="16" value="Simpan data ke file CSV&amp;nbsp;" style="rounded=1;whiteSpace=wrap;html=1;absoluteArcSize=1;arcSize=14;strokeWidth=2;fillColor=#60a917;fontColor=#ffffff;strokeColor=#2D7600;fontFamily=Times New Roman;" parent="1" vertex="1">
                    <mxGeometry x="560" y="1670" width="240" height="100" as="geometry"/>
                </mxCell>
                <mxCell id="41" style="edgeStyle=none;html=1;exitX=0.5;exitY=1;exitDx=0;exitDy=0;fillColor=#1ba1e2;strokeColor=#006EAF;" parent="1" source="17" edge="1">
                    <mxGeometry relative="1" as="geometry">
                        <mxPoint x="680" y="2010" as="targetPoint"/>
                    </mxGeometry>
                </mxCell>
                <mxCell id="17" value="Tampilkan data karyawan" style="rounded=1;whiteSpace=wrap;html=1;absoluteArcSize=1;arcSize=14;strokeWidth=2;fillColor=#60a917;fontColor=#ffffff;strokeColor=#2D7600;fontFamily=Times New Roman;" parent="1" vertex="1">
                    <mxGeometry x="560" y="1850" width="240" height="100" as="geometry"/>
                </mxCell>
                <mxCell id="18" value="END" style="strokeWidth=2;html=1;shape=mxgraph.flowchart.terminator;whiteSpace=wrap;fillColor=#1ba1e2;fontColor=#ffffff;strokeColor=#006EAF;fontFamily=Times New Roman;" parent="1" vertex="1">
                    <mxGeometry x="630" y="2020" width="100" height="60" as="geometry"/>
                </mxCell>
            </root>
        </mxGraphModel>
    </diagram>
</mxfile>